<?xml version="1.0" encoding="UTF-8"?>
<svg xmlns="http://www.w3.org/2000/svg" xmlns:xlink="http://www.w3.org/1999/xlink" width="192.76pt" height="192.76pt" viewBox="0 0 192.76 192.76" version="1.1">
<g id="surface1">
<path style=" stroke:none;fill-rule:evenodd;fill:rgb(100%,100%,100%);fill-opacity:1;" d="M 0 0.00390625 L 192.757813 0.00390625 L 192.757813 192.761719 L 0 192.761719 L 0 0.00390625 "/>
<path style=" stroke:none;fill-rule:evenodd;fill:rgb(26.298523%,41.19873%,56.498718%);fill-opacity:1;" d="M 95.035156 110.242188 L 80.484375 69.933594 L 80.578125 70.445313 C 80.878906 72.84375 80.722656 75.429688 80.136719 78.214844 C 78.515625 85.945313 74.363281 92.046875 67.703125 96.507813 C 60.472656 101.375 51.027344 103.8125 39.335938 103.8125 L 14.121094 103.8125 L 22.140625 65.742188 L 37.339844 65.742188 L 31.296875 94.398438 L 41.226563 94.398438 C 48.203125 94.398438 53.785156 92.640625 57.984375 89.132813 C 61.390625 86.269531 63.558594 82.609375 64.503906 78.144531 C 65.515625 73.324219 64.800781 69.511719 62.351563 66.703125 C 59.566406 63.484375 54.746094 61.886719 47.894531 61.886719 L 22.949219 61.886719 L 24.9375 52.46875 L 90.726563 52.46875 L 100.65625 81.75 L 122.980469 52.46875 L 161.039063 52.46875 C 171.710938 52.46875 179.585938 55.003906 184.65625 60.074219 C 189.339844 64.738281 190.902344 70.792969 189.328125 78.214844 C 187.699219 85.945313 183.558594 92.046875 176.894531 96.507813 C 169.667969 101.375 160.214844 103.8125 148.53125 103.8125 L 123.316406 103.8125 L 131.335938 65.742188 L 146.535156 65.742188 L 140.492188 94.398438 L 150.421875 94.398438 C 157.386719 94.398438 162.980469 92.640625 167.171875 89.132813 C 170.582031 86.269531 172.753906 82.609375 173.695313 78.144531 C 174.710938 73.324219 173.996094 69.511719 171.546875 66.703125 C 168.761719 63.484375 163.941406 61.886719 157.089844 61.886719 L 132.136719 61.90625 L 132.152344 61.855469 Z M 94.179688 140.292969 C 43.761719 140.292969 2.835938 133.632813 2.835938 125.441406 C 2.835938 117.238281 43.761719 110.578125 94.179688 110.578125 C 144.605469 110.578125 185.53125 117.238281 185.53125 125.441406 C 185.53125 133.632813 144.605469 140.292969 94.179688 140.292969 Z M 51.441406 133.566406 L 53.0625 133.566406 L 59.953125 118.464844 L 55.945313 118.464844 L 52.203125 126.964844 L 48.269531 118.464844 L 44.230469 118.464844 Z M 138.429688 133.566406 C 140.992188 133.566406 143.085938 132.777344 144.703125 131.1875 C 146.207031 129.710938 146.960938 127.957031 146.960938 125.914063 C 146.960938 123.929688 146.238281 122.203125 144.789063 120.730469 C 143.191406 119.078125 141.0625 118.261719 138.429688 118.261719 C 135.789063 118.261719 133.660156 119.078125 132.039063 120.730469 C 130.59375 122.203125 129.871094 123.929688 129.871094 125.914063 C 129.871094 127.957031 130.621094 129.710938 132.105469 131.1875 C 133.707031 132.777344 135.816406 133.566406 138.429688 133.566406 Z M 73.011719 133.375 L 73.011719 118.464844 L 69.292969 118.464844 L 69.292969 133.375 Z M 90.140625 133.375 C 93.003906 133.375 95.179688 132.671875 96.703125 131.253906 C 98.101563 129.953125 98.804688 128.1875 98.804688 125.941406 C 98.804688 123.785156 98.109375 122.03125 96.722656 120.671875 C 95.21875 119.195313 93.167969 118.464844 90.554688 118.464844 L 83.972656 118.464844 L 83.972656 133.375 Z M 120.125 133.375 L 120.125 130.636719 L 112.839844 130.636719 L 112.839844 127.050781 L 119.644531 127.050781 L 119.644531 124.3125 L 112.839844 124.3125 L 112.839844 121.191406 L 119.972656 121.191406 L 119.972656 118.464844 L 109.117188 118.464844 L 109.117188 133.375 Z M 87.691406 130.636719 L 87.691406 121.191406 L 90.074219 121.191406 C 91.75 121.191406 93.011719 121.664063 93.859375 122.597656 C 94.601563 123.40625 94.96875 124.515625 94.96875 125.914063 C 94.96875 127.214844 94.632813 128.273438 93.949219 129.113281 C 93.097656 130.125 91.828125 130.636719 90.121094 130.636719 Z M 138.429688 130.464844 C 136.992188 130.464844 135.855469 130.050781 134.996094 129.21875 C 134.128906 128.382813 133.707031 127.28125 133.707031 125.914063 C 133.707031 124.546875 134.128906 123.445313 134.996094 122.617188 C 135.855469 121.789063 136.992188 121.363281 138.429688 121.363281 C 139.835938 121.363281 140.972656 121.789063 141.839844 122.617188 C 142.699219 123.445313 143.121094 124.546875 143.121094 125.914063 C 143.121094 127.28125 142.699219 128.382813 141.839844 129.21875 C 140.972656 130.050781 139.835938 130.464844 138.429688 130.464844 Z M 185.226563 139.9375 L 184.25 139.9375 L 184.25 136.84375 L 183.246094 139.9375 L 182.585938 139.9375 L 181.53125 136.84375 L 181.53125 139.9375 L 180.550781 139.9375 L 180.550781 135.695313 L 181.945313 135.695313 L 182.921875 138.511719 L 183.855469 135.695313 L 185.226563 135.695313 Z M 179.847656 136.574219 L 178.777344 136.574219 L 178.777344 139.9375 L 177.773438 139.9375 L 177.773438 136.574219 L 176.683594 136.574219 L 176.683594 135.695313 L 179.847656 135.695313 L 179.847656 136.574219 "/>
</g>
</svg>
